<svg width="356" height="154" viewBox="0 0 356 154" fill="none" xmlns="http://www.w3.org/2000/svg">
<path d="M10 68.5941H85.2896L56.2005 10L10 144V68.5941Z" fill="#DC2626"/>
<path d="M124.878 112.989V43.9859H179.977C182.532 43.9859 184.832 44.6257 186.876 45.9053C188.984 47.121 190.677 48.7845 191.955 50.8959C193.232 53.0072 193.871 55.3105 193.871 57.8058V76.0403C193.871 78.5355 193.232 80.8388 191.955 82.9502C190.677 84.9976 188.984 86.6611 186.876 87.9407C184.832 89.1563 182.532 89.7642 179.977 89.7642L138.677 89.8601V112.989H124.878ZM139.252 75.8483H179.306C179.497 75.8483 179.625 75.8164 179.689 75.7524C179.817 75.6244 179.881 75.4965 179.881 75.3685V58.3816C179.881 58.1897 179.817 58.0617 179.689 57.9977C179.625 57.8698 179.497 57.8058 179.306 57.8058H139.252C139.06 57.8058 138.9 57.8698 138.773 57.9977C138.709 58.0617 138.677 58.1897 138.677 58.3816V75.3685C138.677 75.4965 138.709 75.6244 138.773 75.7524C138.9 75.8164 139.06 75.8483 139.252 75.8483Z" fill="#F8FAFC"/>
<path d="M200.772 112.989V43.89H214.57V71.4337H257.403V43.89H271.202V112.989H257.403V85.4455H214.57V112.989H200.772Z" fill="#F8FAFC"/>
<path d="M282.373 112.989V43.89H346V57.8058H296.364V71.4337H336.322V85.4455H296.364V112.989H282.373Z" fill="#F8FAFC"/>
</svg>
